<?xml version="1.0" standalone="no"?>
<!DOCTYPE svg PUBLIC "-//W3C//DTD SVG 20010904//EN"
 "http://www.w3.org/TR/2001/REC-SVG-20010904/DTD/svg10.dtd">
<svg version="1.0" xmlns="http://www.w3.org/2000/svg"
 width="95.000000pt" height="23.000000pt" viewBox="0 0 95.000000 23.000000"
 preserveAspectRatio="xMidYMid meet">

<g transform="translate(0.000000,23.000000) scale(0.100000,-0.100000)"
fill="#000000" stroke="none">
<path d="M714 216 c-9 -22 4 -36 32 -36 21 0 25 4 22 23 -4 26 -45 37 -54 13z"/>
<path d="M661 188 c-8 -13 -13 -40 -12 -62 2 -25 -1 -36 -8 -32 -6 4 -11 14
-11 21 0 17 -50 45 -79 45 -11 0 -34 -12 -52 -27 -29 -25 -31 -25 -20 -5 11
20 9 22 -14 22 -21 0 -30 -8 -43 -40 -9 -22 -20 -40 -23 -40 -3 0 -13 17 -21
39 -11 28 -22 40 -42 43 -30 6 -30 1 10 -89 20 -47 26 -53 52 -53 26 0 32 6
50 48 17 39 21 43 21 21 2 -51 71 -90 125 -69 38 14 27 35 -19 35 -22 0 -40 5
-42 13 -4 9 12 12 57 12 l62 0 -4 -30 c-4 -27 -2 -30 24 -30 l28 0 0 100 c0
105 -10 124 -39 78z m-73 -85 c2 -9 -7 -13 -27 -13 -30 0 -39 9 -24 24 11 10
46 3 51 -11z"/>
<path d="M93 188 c-4 -7 -6 -41 -4 -74 3 -67 -6 -82 -40 -64 -17 10 -23 8 -34
-7 -12 -16 -11 -20 8 -30 32 -18 72 -16 98 6 21 17 24 30 27 100 l4 81 -25 0
c-14 0 -29 -6 -34 -12z"/>
<path d="M210 153 c-34 -13 -50 -37 -50 -73 0 -60 61 -95 124 -71 24 10 26 14
16 26 -8 9 -21 13 -31 10 -23 -7 -59 3 -59 16 0 5 25 9 55 9 47 0 55 3 55 19
0 43 -66 82 -110 64z m58 -50 c2 -9 -7 -13 -27 -13 -30 0 -39 9 -24 24 11 10
46 3 51 -11z"/>
<path d="M803 152 c-21 -3 -23 -9 -23 -73 l0 -69 30 0 c29 0 30 2 30 44 0 25
6 48 14 55 22 18 46 -13 46 -60 0 -35 3 -39 25 -39 23 0 25 3 25 51 0 28 -4
59 -10 69 -12 22 -54 34 -79 21 -10 -6 -22 -7 -27 -3 -5 5 -19 6 -31 4z"/>
<path d="M715 80 c0 -70 0 -70 28 -70 27 0 27 0 27 70 0 70 0 70 -27 70 -28 0
-28 0 -28 -70z"/>
</g>
</svg>
